<svg width="106" height="30" viewBox="0 0 106 30" fill="none" xmlns="http://www.w3.org/2000/svg">
<path d="M6.23 29.365C5.71667 29.365 5.19167 29.33 4.655 29.26C3.185 29.0733 2.1 28.6417 1.4 27.965C0.723333 27.2883 0.385 26.5533 0.385 25.76C0.385 24.8967 0.77 24.115 1.54 23.415C2.31 22.6917 3.395 22.33 4.795 22.33C5.72833 22.33 6.74333 22.5167 7.84 22.89C8.44667 23.1 9.17 23.45 10.01 23.94C10.85 24.43 11.8183 24.9433 12.915 25.48C14.0817 24.36 15.1433 22.9717 16.1 21.315C17.08 19.6583 18.0483 17.885 19.005 15.995C19.985 14.0817 21.035 12.1683 22.155 10.255C23.2983 8.34167 24.6167 6.545 26.11 4.865L28.14 2.59C27.2767 2.45 26.3783 2.345 25.445 2.275C24.5117 2.18167 23.5433 2.135 22.54 2.135C21.28 2.135 19.985 2.205 18.655 2.345C17.325 2.46167 15.995 2.66 14.665 2.94C12.4717 3.40667 10.6167 4.15333 9.1 5.18C7.58333 6.20667 6.42833 7.32667 5.635 8.54C4.865 9.73 4.48 10.85 4.48 11.9C4.48 12.6233 4.67833 13.2767 5.075 13.86C5.495 14.42 6.11333 14.8283 6.93 15.085C7.44333 15.2483 7.96833 15.33 8.505 15.33C9.29833 15.33 9.99833 15.1667 10.605 14.84C11.2117 14.5133 11.725 14.1167 12.145 13.65C12.565 13.16 12.8683 12.6933 13.055 12.25C13.265 11.8067 13.3583 11.48 13.335 11.27C13.335 11.1067 13.4517 11.025 13.685 11.025C13.9183 11.025 14.035 11.2 14.035 11.55V11.585C14.035 12.5417 13.7433 13.37 13.16 14.07C12.5767 14.77 11.8417 15.3067 10.955 15.68C10.0917 16.0533 9.21667 16.24 8.33 16.24C7.77 16.24 7.18667 16.1467 6.58 15.96C5.32 15.5167 4.38667 14.875 3.78 14.035C3.17333 13.1717 2.87 12.2267 2.87 11.2C2.87 10.2433 3.12667 9.26333 3.64 8.26C4.17667 7.23333 4.95833 6.265 5.985 5.355C7.01167 4.42167 8.28333 3.61667 9.8 2.94C11.34 2.26333 13.1133 1.785 15.12 1.505C16.1933 1.34166 17.255 1.225 18.305 1.155C19.355 1.085 20.37 1.05 21.35 1.05C22.7033 1.05 24.0217 1.12 25.305 1.26C26.6117 1.37666 27.8367 1.56333 28.98 1.82C29.3067 1.54 29.6333 1.295 29.96 1.085C30.31 0.874998 30.625 0.711665 30.905 0.594998C31.0683 0.524999 31.2083 0.478332 31.325 0.454998C31.4417 0.431665 31.535 0.419998 31.605 0.419998C31.745 0.419998 31.815 0.466665 31.815 0.559999C31.815 0.676665 31.64 0.863332 31.29 1.12C31.0567 1.28333 30.835 1.47 30.625 1.68C30.415 1.86667 30.2867 2.00667 30.24 2.1C32.62 2.70667 34.545 3.54667 36.015 4.62C37.5083 5.67 38.255 6.91833 38.255 8.365C38.255 9.11167 38.01 9.92833 37.52 10.815C37.0067 11.6783 36.295 12.3783 35.385 12.915C34.475 13.4283 33.5067 13.8133 32.48 14.07C31.4533 14.3033 30.4967 14.4433 29.61 14.49C30.38 14.7233 31.22 15.0733 32.13 15.54C33.0633 15.9833 33.915 16.5317 34.685 17.185C35.4783 17.8383 36.0033 18.6083 36.26 19.495C36.4233 20.055 36.505 20.6267 36.505 21.21C36.505 22.4467 36.1433 23.5667 35.42 24.57C34.72 25.5733 33.775 26.4367 32.585 27.16C31.4183 27.86 30.135 28.3967 28.735 28.77C27.335 29.1667 25.9467 29.365 24.57 29.365C24.0567 29.365 23.5317 29.33 22.995 29.26C20.755 28.98 18.9 28.63 17.43 28.21C15.9833 27.79 14.7117 27.3233 13.615 26.81C11.3517 28.5133 8.89 29.365 6.23 29.365ZM24.08 28.35C25.5267 28.35 26.845 28.1283 28.035 27.685C29.225 27.2417 30.2517 26.6583 31.115 25.935C32.0017 25.2117 32.6783 24.4067 33.145 23.52C33.635 22.6333 33.88 21.7583 33.88 20.895C33.88 20.0783 33.635 19.285 33.145 18.515C32.655 17.745 31.885 17.1033 30.835 16.59C29.925 16.1467 28.98 15.785 28 15.505C27.0433 15.2017 26.215 14.945 25.515 14.735C24.815 14.5017 24.4067 14.2683 24.29 14.035C24.29 13.755 24.4067 13.5683 24.64 13.475C24.8967 13.3583 25.2233 13.3 25.62 13.3C26.0867 13.3 26.6467 13.335 27.3 13.405C27.9533 13.475 28.6417 13.51 29.365 13.51C30.1117 13.51 30.87 13.3467 31.64 13.02C32.4333 12.67 33.1567 12.215 33.81 11.655C34.4633 11.0717 34.9883 10.4417 35.385 9.765C35.805 9.065 36.015 8.35333 36.015 7.63C36.015 6.97667 35.7933 6.335 35.35 5.705C34.9067 5.075 34.1717 4.52667 33.145 4.06C32.1183 3.59333 31.01 3.22 29.82 2.94C28.6533 4.55 27.4867 6.35833 26.32 8.365C25.1533 10.3483 23.9867 12.3667 22.82 14.42C21.6533 16.45 20.475 18.375 19.285 20.195C18.095 22.015 16.905 23.5783 15.715 24.885C15.435 25.1883 15.2133 25.4217 15.05 25.585C14.8867 25.725 14.665 25.9233 14.385 26.18C15.4817 26.6233 16.73 27.0433 18.13 27.44C19.53 27.8367 21.1283 28.1167 22.925 28.28C23.1117 28.3033 23.2983 28.315 23.485 28.315C23.695 28.3383 23.8933 28.35 24.08 28.35ZM5.53 28.28C6.83667 28.35 8.02667 28.1983 9.1 27.825C10.1967 27.4283 11.2117 26.88 12.145 26.18C11.3283 25.7833 10.4883 25.375 9.625 24.955C8.785 24.5117 7.88667 24.115 6.93 23.765C6.25333 23.5317 5.635 23.415 5.075 23.415C4.21167 23.415 3.55833 23.6483 3.115 24.115C2.67167 24.5583 2.45 25.0717 2.45 25.655C2.45 26.2617 2.70667 26.845 3.22 27.405C3.73333 27.9417 4.50333 28.2333 5.53 28.28ZM40.3506 28.105C39.3706 28.105 38.7056 27.8483 38.3556 27.335C38.0056 26.7983 37.8306 26.1683 37.8306 25.445C37.8306 24.6983 37.9356 23.9283 38.1456 23.135C38.3556 22.3417 38.5423 21.6767 38.7056 21.14C39.079 19.8333 39.5456 18.445 40.1056 16.975C40.689 15.4817 41.319 14.0233 41.9956 12.6C42.6956 11.1533 43.384 9.85833 44.0606 8.715C44.5973 7.805 45.169 7.12833 45.7756 6.685C46.4056 6.21833 46.954 5.985 47.4206 5.985C47.794 5.985 48.0856 6.125 48.2956 6.405C48.529 6.66167 48.6456 7.05833 48.6456 7.595C48.6456 7.96833 48.5756 8.41167 48.4356 8.925C48.319 9.43833 48.109 10.0217 47.8056 10.675C46.989 12.495 46.009 14.315 44.8656 16.135C43.7456 17.955 42.3223 19.6583 40.5956 21.245C40.5023 21.5483 40.374 21.91 40.2106 22.33C40.0706 22.7267 39.9423 23.135 39.8256 23.555C39.6856 24.185 39.6156 24.7217 39.6156 25.165C39.6156 25.8883 39.7556 26.4367 40.0356 26.81C40.339 27.16 40.7006 27.335 41.1206 27.335C41.494 27.335 41.8906 27.2067 42.3106 26.95C42.7306 26.67 43.1273 26.2733 43.5006 25.76C44.0606 24.9433 44.5623 24.115 45.0056 23.275C45.4723 22.4117 45.8223 21.7467 46.0556 21.28C46.1956 21.0233 46.3473 20.895 46.5106 20.895C46.6273 20.895 46.6856 20.965 46.6856 21.105C46.6856 21.2217 46.6506 21.35 46.5806 21.49C46.3706 21.9567 46.0906 22.5633 45.7406 23.31C45.414 24.0333 44.994 24.7683 44.4806 25.515C43.9906 26.2383 43.3956 26.8567 42.6956 27.37C42.019 27.86 41.2373 28.105 40.3506 28.105ZM40.8756 20.125C41.7156 19.2617 42.5323 18.27 43.3256 17.15C44.119 16.0067 44.854 14.8283 45.5306 13.615C46.2306 12.3783 46.814 11.2117 47.2806 10.115C47.444 9.765 47.5723 9.38 47.6656 8.96C47.7823 8.54 47.8406 8.19 47.8406 7.91C47.8406 7.58333 47.759 7.42 47.5956 7.42C47.5023 7.42 47.3623 7.51333 47.1756 7.7C46.989 7.86333 46.744 8.155 46.4406 8.575C45.9973 9.15833 45.5073 9.95167 44.9706 10.955C44.4573 11.9583 43.9323 13.0317 43.3956 14.175C42.859 15.3183 42.369 16.4267 41.9256 17.5C41.4823 18.55 41.1323 19.425 40.8756 20.125ZM47.7318 28C46.8451 28 46.1918 27.7083 45.7718 27.125C45.3518 26.5183 45.1418 25.7833 45.1418 24.92C45.1418 23.87 45.3868 22.7733 45.8768 21.63C46.3435 20.5567 46.9385 19.5767 47.6618 18.69C48.3851 17.8033 49.1668 17.0917 50.0068 16.555C50.8468 15.995 51.6635 15.715 52.4568 15.715C53.3435 15.715 53.9968 16.0067 54.4168 16.59C54.8368 17.1733 55.0468 17.9083 55.0468 18.795C55.0468 19.8683 54.8018 20.965 54.3118 22.085C54.0318 22.715 53.6351 23.415 53.1218 24.185C52.6085 24.9317 52.0251 25.62 51.3718 26.25C51.5118 26.5067 51.7101 26.7283 51.9668 26.915C52.2235 27.0783 52.5735 27.16 53.0168 27.16C53.5768 27.16 54.1018 26.9267 54.5918 26.46C55.1051 25.9933 55.5718 25.4333 55.9918 24.78C56.4118 24.1033 56.7851 23.4267 57.1118 22.75C57.4385 22.0733 57.7068 21.525 57.9168 21.105C57.9868 20.965 58.1035 20.895 58.2668 20.895C58.3601 20.895 58.4301 20.9417 58.4768 21.035C58.5235 21.105 58.5118 21.2217 58.4418 21.385C58.3018 21.735 58.0685 22.26 57.7418 22.96C57.4151 23.6367 57.0185 24.3483 56.5518 25.095C56.0851 25.8183 55.5485 26.4367 54.9418 26.95C54.3351 27.4633 53.6585 27.72 52.9118 27.72C52.3985 27.72 51.9551 27.6383 51.5818 27.475C51.2085 27.2883 50.9051 27.0667 50.6718 26.81C50.1818 27.1833 49.6918 27.475 49.2018 27.685C48.7118 27.895 48.2218 28 47.7318 28ZM48.2568 27.23C48.8868 27.23 49.5635 26.9267 50.2868 26.32C50.1001 26.04 49.9601 25.7483 49.8668 25.445C49.7735 25.1417 49.7268 24.8617 49.7268 24.605C49.7268 24.185 49.8201 23.8233 50.0068 23.52C50.2168 23.2167 50.5318 23.065 50.9518 23.065C51.2551 23.065 51.5001 23.1817 51.6868 23.415C51.8968 23.625 52.0018 23.87 52.0018 24.15C52.0018 24.22 51.9901 24.29 51.9668 24.36C51.9668 24.4067 51.9551 24.465 51.9318 24.535C52.3285 23.9983 52.7018 23.3683 53.0518 22.645C53.8218 20.9883 54.2068 19.6233 54.2068 18.55C54.2068 18.0133 54.1018 17.5933 53.8918 17.29C53.6818 16.9867 53.3668 16.835 52.9468 16.835C52.4568 16.835 51.9201 17.045 51.3368 17.465C50.7768 17.885 50.2285 18.445 49.6918 19.145C49.1785 19.845 48.7235 20.6267 48.3268 21.49C47.9535 22.2833 47.6501 23.0533 47.4168 23.8C47.2068 24.5233 47.1018 25.1533 47.1018 25.69C47.1018 26.1567 47.1951 26.53 47.3818 26.81C47.5685 27.09 47.8601 27.23 48.2568 27.23ZM58.5804 28.14C57.4371 28.14 56.6204 27.8483 56.1304 27.265C55.6638 26.6583 55.4304 26.0283 55.4304 25.375C55.4304 24.8383 55.5588 24.3483 55.8154 23.905C56.0954 23.4617 56.4221 23.2283 56.7954 23.205C57.2621 22.295 57.7638 21.3033 58.3004 20.23C58.8604 19.1567 59.3738 18.1183 59.8404 17.115C60.1671 16.4383 60.5754 15.785 61.0654 15.155C61.5788 14.525 62.1388 14.1633 62.7454 14.07H63.0954C63.2821 14.07 63.4454 14.0817 63.5854 14.105C63.7488 14.1283 63.9121 14.175 64.0754 14.245C64.3321 14.3617 64.4604 14.5367 64.4604 14.77C64.4604 14.91 64.3788 14.98 64.2154 14.98C64.1454 14.98 64.0521 14.945 63.9354 14.875C63.6554 14.7583 63.4104 14.7 63.2004 14.7C63.0604 14.7 62.9321 14.735 62.8154 14.805C62.3721 15.0383 62.0571 15.365 61.8704 15.785C61.7071 16.205 61.6254 16.6483 61.6254 17.115C61.6254 17.4883 61.6604 17.8733 61.7304 18.27C61.8238 18.6433 61.9288 18.9817 62.0454 19.285C62.3021 19.9383 62.5704 20.58 62.8504 21.21C63.1538 21.84 63.3054 22.5167 63.3054 23.24C63.3054 23.94 63.0721 24.6867 62.6054 25.48C62.1388 26.25 61.5438 26.8683 60.8204 27.335L61.0654 27.37C61.1821 27.3933 61.2638 27.405 61.3104 27.405C61.3571 27.405 61.3921 27.405 61.4154 27.405C61.9521 27.405 62.4538 27.2533 62.9204 26.95C63.4104 26.6233 63.8421 26.2267 64.2154 25.76C64.5888 25.2933 65.0088 24.64 65.4754 23.8C65.9654 22.96 66.4321 22.0733 66.8754 21.14C66.9454 21.0233 67.0271 20.965 67.1204 20.965C67.2371 20.965 67.3188 21.0117 67.3654 21.105C67.4354 21.175 67.4471 21.2683 67.4004 21.385C67.0971 22.0383 66.7471 22.75 66.3504 23.52C65.9771 24.2667 65.5454 24.99 65.0554 25.69C64.5654 26.3667 63.9938 26.9267 63.3404 27.37C62.7104 27.79 61.9988 28 61.2054 28C61.0188 28 60.8204 27.9883 60.6104 27.965C60.4004 27.9417 60.1904 27.895 59.9804 27.825C59.7471 27.9183 59.5021 27.9883 59.2454 28.035C59.0121 28.105 58.7904 28.14 58.5804 28.14ZM59.6304 27.09C60.0271 26.7633 60.3771 26.285 60.6804 25.655C61.0071 25.025 61.1704 24.1967 61.1704 23.17C61.1704 22.26 61.0771 21.2917 60.8904 20.265C60.7038 19.2383 60.6104 18.3283 60.6104 17.535C60.6104 17.3717 60.6104 17.2317 60.6104 17.115C60.6338 16.975 60.6571 16.8467 60.6804 16.73C60.3771 17.36 60.0271 18.095 59.6304 18.935C59.2338 19.7517 58.8371 20.545 58.4404 21.315C58.0438 22.085 57.7054 22.7383 57.4254 23.275C57.4254 23.275 57.4838 23.2867 57.6004 23.31C57.7404 23.31 57.8688 23.3917 57.9854 23.555C58.1021 23.695 58.1488 23.9867 58.1254 24.43C58.1021 25.0133 58.2304 25.5617 58.5104 26.075C58.8138 26.565 59.1871 26.9033 59.6304 27.09ZM58.3004 27.58C58.4404 27.58 58.5688 27.5683 58.6854 27.545C58.8021 27.4983 58.9071 27.4633 59.0004 27.44C58.6504 27.1833 58.3354 26.845 58.0554 26.425C57.7988 25.9817 57.6471 25.4217 57.6004 24.745C57.1804 25.1883 56.9704 25.6667 56.9704 26.18C56.9704 26.5533 57.0871 26.88 57.3204 27.16C57.5538 27.44 57.8804 27.58 58.3004 27.58ZM67.5697 28.14C66.4264 28.14 65.6097 27.8483 65.1197 27.265C64.653 26.6583 64.4197 26.0283 64.4197 25.375C64.4197 24.8383 64.548 24.3483 64.8047 23.905C65.0847 23.4617 65.4114 23.2283 65.7847 23.205C66.2514 22.295 66.753 21.3033 67.2897 20.23C67.8497 19.1567 68.363 18.1183 68.8297 17.115C69.1564 16.4383 69.5647 15.785 70.0547 15.155C70.568 14.525 71.128 14.1633 71.7347 14.07H72.0847C72.2714 14.07 72.4347 14.0817 72.5747 14.105C72.738 14.1283 72.9014 14.175 73.0647 14.245C73.3214 14.3617 73.4497 14.5367 73.4497 14.77C73.4497 14.91 73.368 14.98 73.2047 14.98C73.1347 14.98 73.0414 14.945 72.9247 14.875C72.6447 14.7583 72.3997 14.7 72.1897 14.7C72.0497 14.7 71.9214 14.735 71.8047 14.805C71.3614 15.0383 71.0464 15.365 70.8597 15.785C70.6964 16.205 70.6147 16.6483 70.6147 17.115C70.6147 17.4883 70.6497 17.8733 70.7197 18.27C70.813 18.6433 70.918 18.9817 71.0347 19.285C71.2914 19.9383 71.5597 20.58 71.8397 21.21C72.143 21.84 72.2947 22.5167 72.2947 23.24C72.2947 23.94 72.0614 24.6867 71.5947 25.48C71.128 26.25 70.533 26.8683 69.8097 27.335L70.0547 27.37C70.1714 27.3933 70.253 27.405 70.2997 27.405C70.3464 27.405 70.3814 27.405 70.4047 27.405C70.9414 27.405 71.443 27.2533 71.9097 26.95C72.3997 26.6233 72.8314 26.2267 73.2047 25.76C73.578 25.2933 73.998 24.64 74.4647 23.8C74.9547 22.96 75.4214 22.0733 75.8647 21.14C75.9347 21.0233 76.0164 20.965 76.1097 20.965C76.2264 20.965 76.308 21.0117 76.3547 21.105C76.4247 21.175 76.4364 21.2683 76.3897 21.385C76.0864 22.0383 75.7364 22.75 75.3397 23.52C74.9664 24.2667 74.5347 24.99 74.0447 25.69C73.5547 26.3667 72.983 26.9267 72.3297 27.37C71.6997 27.79 70.988 28 70.1947 28C70.008 28 69.8097 27.9883 69.5997 27.965C69.3897 27.9417 69.1797 27.895 68.9697 27.825C68.7364 27.9183 68.4914 27.9883 68.2347 28.035C68.0014 28.105 67.7797 28.14 67.5697 28.14ZM68.6197 27.09C69.0164 26.7633 69.3664 26.285 69.6697 25.655C69.9964 25.025 70.1597 24.1967 70.1597 23.17C70.1597 22.26 70.0664 21.2917 69.8797 20.265C69.693 19.2383 69.5997 18.3283 69.5997 17.535C69.5997 17.3717 69.5997 17.2317 69.5997 17.115C69.623 16.975 69.6464 16.8467 69.6697 16.73C69.3664 17.36 69.0164 18.095 68.6197 18.935C68.223 19.7517 67.8264 20.545 67.4297 21.315C67.033 22.085 66.6947 22.7383 66.4147 23.275C66.4147 23.275 66.473 23.2867 66.5897 23.31C66.7297 23.31 66.858 23.3917 66.9747 23.555C67.0914 23.695 67.138 23.9867 67.1147 24.43C67.0914 25.0133 67.2197 25.5617 67.4997 26.075C67.803 26.565 68.1764 26.9033 68.6197 27.09ZM67.2897 27.58C67.4297 27.58 67.558 27.5683 67.6747 27.545C67.7914 27.4983 67.8964 27.4633 67.9897 27.44C67.6397 27.1833 67.3247 26.845 67.0447 26.425C66.788 25.9817 66.6364 25.4217 66.5897 24.745C66.1697 25.1883 65.9597 25.6667 65.9597 26.18C65.9597 26.5533 66.0764 26.88 66.3097 27.16C66.543 27.44 66.8697 27.58 67.2897 27.58ZM77.4339 28C76.5473 28 75.8939 27.7083 75.4739 27.125C75.0539 26.5183 74.8439 25.7833 74.8439 24.92C74.8439 23.87 75.0889 22.7733 75.5789 21.63C76.0456 20.5567 76.6406 19.5767 77.3639 18.69C78.0873 17.8033 78.8689 17.0917 79.7089 16.555C80.5489 15.995 81.3656 15.715 82.1589 15.715C83.0456 15.715 83.6989 16.0067 84.1189 16.59C84.5389 17.1733 84.7489 17.9083 84.7489 18.795C84.7489 19.8683 84.5039 20.965 84.0139 22.085C83.7339 22.715 83.3373 23.415 82.8239 24.185C82.3106 24.9317 81.7273 25.62 81.0739 26.25C81.2139 26.5067 81.4123 26.7283 81.6689 26.915C81.9256 27.0783 82.2756 27.16 82.7189 27.16C83.2789 27.16 83.8039 26.9267 84.2939 26.46C84.8073 25.9933 85.2739 25.4333 85.6939 24.78C86.1139 24.1033 86.4873 23.4267 86.8139 22.75C87.1406 22.0733 87.4089 21.525 87.6189 21.105C87.6889 20.965 87.8056 20.895 87.9689 20.895C88.0623 20.895 88.1323 20.9417 88.1789 21.035C88.2256 21.105 88.2139 21.2217 88.1439 21.385C88.0039 21.735 87.7706 22.26 87.4439 22.96C87.1173 23.6367 86.7206 24.3483 86.2539 25.095C85.7873 25.8183 85.2506 26.4367 84.6439 26.95C84.0373 27.4633 83.3606 27.72 82.6139 27.72C82.1006 27.72 81.6573 27.6383 81.2839 27.475C80.9106 27.2883 80.6073 27.0667 80.3739 26.81C79.8839 27.1833 79.3939 27.475 78.9039 27.685C78.4139 27.895 77.9239 28 77.4339 28ZM77.9589 27.23C78.5889 27.23 79.2656 26.9267 79.9889 26.32C79.8023 26.04 79.6623 25.7483 79.5689 25.445C79.4756 25.1417 79.4289 24.8617 79.4289 24.605C79.4289 24.185 79.5223 23.8233 79.7089 23.52C79.9189 23.2167 80.2339 23.065 80.6539 23.065C80.9573 23.065 81.2023 23.1817 81.3889 23.415C81.5989 23.625 81.7039 23.87 81.7039 24.15C81.7039 24.22 81.6923 24.29 81.6689 24.36C81.6689 24.4067 81.6573 24.465 81.6339 24.535C82.0306 23.9983 82.4039 23.3683 82.7539 22.645C83.5239 20.9883 83.9089 19.6233 83.9089 18.55C83.9089 18.0133 83.8039 17.5933 83.5939 17.29C83.3839 16.9867 83.0689 16.835 82.6489 16.835C82.1589 16.835 81.6223 17.045 81.0389 17.465C80.4789 17.885 79.9306 18.445 79.3939 19.145C78.8806 19.845 78.4256 20.6267 78.0289 21.49C77.6556 22.2833 77.3523 23.0533 77.1189 23.8C76.9089 24.5233 76.8039 25.1533 76.8039 25.69C76.8039 26.1567 76.8973 26.53 77.0839 26.81C77.2706 27.09 77.5623 27.23 77.9589 27.23ZM84.1876 28.175C85.0509 26.5183 85.8676 24.8617 86.6376 23.205C87.4076 21.525 88.1892 19.9383 88.9826 18.445C89.4492 17.605 89.8342 17.0217 90.1376 16.695C90.4642 16.345 90.8959 16.17 91.4326 16.17C91.6192 16.17 91.8176 16.205 92.0276 16.275C92.2376 16.3217 92.4476 16.345 92.6576 16.345C92.7976 16.345 92.9026 16.3333 92.9726 16.31C92.6459 16.4967 92.2259 16.9633 91.7126 17.71C91.1992 18.4333 90.6742 19.2733 90.1376 20.23C89.6009 21.1867 89.1226 22.085 88.7026 22.925C89.1459 22.3883 89.6009 21.8517 90.0676 21.315C90.5576 20.7783 91.0942 20.265 91.6776 19.775C92.1909 19.3317 92.7276 18.8533 93.2876 18.34C93.8709 17.8033 94.4426 17.3483 95.0026 16.975C95.5626 16.6017 96.0526 16.415 96.4726 16.415C96.6359 16.415 96.7409 16.4267 96.7876 16.45C97.2309 16.6367 97.4526 16.94 97.4526 17.36C97.4526 17.5 97.3942 17.71 97.2776 17.99C96.9742 18.7833 96.5776 19.6 96.0876 20.44C95.6209 21.2567 95.1776 22.085 94.7576 22.925C95.1076 22.505 95.5392 21.9917 96.0526 21.385C96.5892 20.7783 97.1259 20.2417 97.6626 19.775C98.1759 19.3083 98.8292 18.8183 99.6226 18.305C100.416 17.7917 101.198 17.3483 101.968 16.975C102.738 16.6017 103.356 16.415 103.823 16.415C103.986 16.415 104.103 16.4267 104.173 16.45C104.173 16.45 104.044 16.6833 103.788 17.15C103.531 17.5933 103.204 18.1883 102.808 18.935C102.434 19.6583 102.049 20.44 101.653 21.28C101.256 22.0967 100.894 22.89 100.568 23.66C100.264 24.4067 100.066 25.0367 99.9726 25.55C99.9026 25.8533 99.8676 26.1333 99.8676 26.39C99.8676 26.7633 99.9376 27.0083 100.078 27.125C100.218 27.2417 100.369 27.3 100.533 27.3C100.999 27.3 101.478 27.055 101.968 26.565C102.458 26.075 102.924 25.4917 103.368 24.815C103.834 24.115 104.243 23.4383 104.593 22.785C104.943 22.1083 105.199 21.595 105.363 21.245C105.503 20.9883 105.643 20.86 105.783 20.86C105.923 20.86 105.993 20.9533 105.993 21.14C105.993 21.2567 105.958 21.385 105.888 21.525C105.608 22.0617 105.269 22.7033 104.873 23.45C104.499 24.1967 104.068 24.9317 103.578 25.655C103.088 26.355 102.539 26.95 101.933 27.44C101.349 27.9067 100.719 28.14 100.043 28.14C99.5526 28.14 99.0509 27.9767 98.5376 27.65C98.0476 27.3233 97.8026 26.7167 97.8026 25.83C97.8026 25.34 97.9076 24.745 98.1176 24.045C98.2809 23.5783 98.5259 23.0417 98.8526 22.435C99.2026 21.8283 99.6226 21.1283 100.113 20.335C100.346 19.9383 100.463 19.6233 100.463 19.39C100.463 19.11 100.323 18.97 100.043 18.97C99.8092 18.97 99.4826 19.0867 99.0626 19.32C98.6659 19.5533 98.1642 19.9617 97.5576 20.545C97.1842 20.895 96.7409 21.385 96.2276 22.015C95.7376 22.6217 95.2359 23.2867 94.7226 24.01C94.2092 24.7333 93.7659 25.445 93.3926 26.145C93.0192 26.845 92.7742 27.4633 92.6576 28C92.3076 28 92.0276 27.86 91.8176 27.58C91.6076 27.2767 91.5026 26.9267 91.5026 26.53C91.5026 26.46 91.5026 26.39 91.5026 26.32C91.5026 26.25 91.5142 26.1683 91.5376 26.075C91.6542 25.3517 91.8409 24.675 92.0976 24.045C92.3542 23.415 92.6459 22.7617 92.9726 22.085C93.2292 21.595 93.4859 21.07 93.7426 20.51C93.9992 19.9267 94.1276 19.4833 94.1276 19.18C94.1276 18.9933 94.0576 18.9 93.9176 18.9C93.7542 18.9 93.4859 19.0283 93.1126 19.285C92.7392 19.5183 92.2259 19.9383 91.5726 20.545C90.9892 21.105 90.2776 21.91 89.4376 22.96C88.6209 24.01 87.7226 25.5033 86.7426 27.44C86.6026 27.6967 86.4392 27.86 86.2526 27.93C86.0659 27.9767 85.7742 28 85.3776 28C85.1209 28 84.9109 28 84.7476 28C84.5609 28.0233 84.3742 28.0817 84.1876 28.175Z" fill="#EFEBA7"/>
</svg>
